HIERARCHY
ROOT Hips
{
	OFFSET	0.00	0.00	0.00
	CHANNELS 6 Xposition Yposition Zposition Zrotation Xrotation Yrotation
	JOINT LeftUpLeg
	{
		OFFSET	 0.126116	-0.014019	-0.065224
		CHANNELS 3 Zrotation Xrotation Yrotation
		JOINT LeftLeg
		{
			OFFSET	 0.000000	 0.000000	 0.569914
			CHANNELS 3 Zrotation Xrotation Yrotation
			JOINT LeftFoot
			{
				OFFSET	 0.000000	 0.000000	 0.544423
				CHANNELS 3 Zrotation Xrotation Yrotation
				JOINT LeftToeBase
				{
					OFFSET	 0.000000	 0.000000	 0.207117
					CHANNELS 3 Zrotation Xrotation Yrotation
					End Site
					{
						OFFSET	 0.000000	 0.000000	 0.207117
					}
				}
			}
		}
	}
	JOINT RightUpLeg
	{
		OFFSET	-0.124023	-0.008373	-0.065224
		CHANNELS 3 Zrotation Xrotation Yrotation
		JOINT RightLeg
		{
			OFFSET	 0.000000	 0.000000	 0.570047
			CHANNELS 3 Zrotation Xrotation Yrotation
			JOINT RightFoot
			{
				OFFSET	 0.000000	 0.000000	 0.544354
				CHANNELS 3 Zrotation Xrotation Yrotation
				JOINT RightToeBase
				{
					OFFSET	 0.000000	 0.000000	 0.207540
					CHANNELS 3 Zrotation Xrotation Yrotation
					End Site
					{
						OFFSET	 0.000000	 0.000000	 0.207540
					}
				}
			}
		}
	}
	JOINT Spine
	{
		OFFSET	 0.000184	-0.007763	 0.117403
		CHANNELS 3 Zrotation Xrotation Yrotation
		JOINT Spine1
		{
			OFFSET	 0.000000	 0.000000	 0.137269
			CHANNELS 3 Zrotation Xrotation Yrotation
			JOINT Spine2
			{
				OFFSET	 0.000000	 0.000000	 0.156879
				CHANNELS 3 Zrotation Xrotation Yrotation
				JOINT LeftShoulder
				{
					OFFSET	 0.080501	-0.002496	 0.160144
					CHANNELS 3 Zrotation Xrotation Yrotation
					JOINT LeftArm
					{
						OFFSET	 0.000000	 0.000000	 0.164363
						CHANNELS 3 Zrotation Xrotation Yrotation
						JOINT LeftForeArm
						{
							OFFSET	 0.000000	 0.000000	 0.364576
							CHANNELS 3 Zrotation Xrotation Yrotation
							JOINT LeftHand
							{
								OFFSET	 0.000000	 0.000000	 0.360812
								CHANNELS 3 Zrotation Xrotation Yrotation
								JOINT LeftHandIndex1
								{
									OFFSET	 0.000000	 0.000000	 0.086006
									CHANNELS 3 Zrotation Xrotation Yrotation
									JOINT LeftHandIndex2
									{
										OFFSET	 0.000000	 0.000000	 0.047236
										CHANNELS 3 Zrotation Xrotation Yrotation
										JOINT LeftHandIndex3
										{
											OFFSET	-0.004284	-0.000551	 0.038166
											CHANNELS 3 Zrotation Xrotation Yrotation
											End Site
											{
												OFFSET	-0.004284	-0.000551	 0.038166
											}
										}
									}
								}
							}
						}
					}
				}
				JOINT Neck
				{
					OFFSET	 0.000000	 0.000000	 0.176489
					CHANNELS 3 Zrotation Xrotation Yrotation
					JOINT Head
					{
						OFFSET	 0.000000	-0.001747	 0.077940
						CHANNELS 3 Zrotation Xrotation Yrotation
						End Site
						{
							OFFSET	 0.000000	-0.001747	 0.077940
						}
					}
				}
				JOINT RightShoulder
				{
					OFFSET	-0.080363	 0.000306	 0.159706
					CHANNELS 3 Zrotation Xrotation Yrotation
					JOINT RightArm
					{
						OFFSET	 0.000000	 0.000000	 0.164196
						CHANNELS 3 Zrotation Xrotation Yrotation
						JOINT RightForeArm
						{
							OFFSET	 0.000000	 0.000000	 0.365611
							CHANNELS 3 Zrotation Xrotation Yrotation
							JOINT RightHand
							{
								OFFSET	 0.000000	 0.000000	 0.360648
								CHANNELS 3 Zrotation Xrotation Yrotation
								JOINT RightHandIndex1
								{
									OFFSET	 0.000000	 0.000000	 0.069977
									CHANNELS 3 Zrotation Xrotation Yrotation
									JOINT RightHandIndex2
									{
										OFFSET	 0.000000	 0.000000	 0.052305
										CHANNELS 3 Zrotation Xrotation Yrotation
										JOINT RightHandIndex3
										{
											OFFSET	 0.009002	-0.000782	 0.042196
											CHANNELS 3 Zrotation Xrotation Yrotation
											End Site
											{
												OFFSET	 0.009002	-0.000782	 0.042196
											}
										}
									}
								}
							}
						}
					}
				}
			}
		}
	}
}
MOTION
Frames:    8
Frame Time: 0.03333334
 0.002288	 0.022890	 1.215238	 0.001869	 0.736486	 0.483341	 4.121768	-1.740600	 179.840900	 3.149054	-11.594560	 1.749952	 4.341489	 71.407150	 1.245834	-2.385833	 28.452760	 0.000004	-4.123327	-2.151783	-179.865500	-3.142116	-11.963990	-1.790687	-4.347235	 71.430570	-1.263901	 2.384659	 28.388700	-0.000001	-0.005923	 3.783161	 0.089848	 0.000000	 0.000000	 0.000000	 0.000000	 0.000000	 0.000000	-91.229260	 83.958310	 178.242600	 12.080020	 0.580816	-1.590062	-5.132527	-0.912958	-0.284914	-17.486790	-9.417532	-4.350565	-2.434338	 5.182776	 7.472631	-5.213937	-0.202400	 3.566957	-1.378229	 35.397820	-2.634230	 0.411357	-3.779086	-0.073053	-0.595966	 0.008129	-0.142397	 87.726900	 87.419040	-176.798800	-12.547750	 3.325960	 3.698915	 5.871922	-0.462907	 0.434563	 18.099880	-10.401500	 8.643431	 3.236365	 2.840245	-9.892056	 5.070519	-0.690904	-9.399550	-2.350882	 35.473990	 5.254307
-0.015006	 0.022499	 1.258022	 179.117000	 0.115574	 3.224256	-12.408780	-9.728559	-174.180900	 0.517930	-22.123480	-3.232953	 26.909480	 75.663330	-41.629460	-2.194827	 47.107690	-0.485741	 3.288946	-11.734640	 171.278100	 4.179798	-27.486680	 5.732220	-40.061770	 77.751220	 51.396530	 2.333883	 36.242130	 0.180817	-89.230200	 4.382651	 3.176289	-91.453240	 18.070310	 13.124720	-6.491812	-26.999030	-6.811878	-91.229320	 83.958310	 178.242600	 53.257740	 76.082920	 34.782660	-25.880760	-22.494510	-115.602000	 24.008330	-9.668480	-8.323523	-12.054330	 6.613035	-24.829600	-5.213937	-0.202400	 3.566957	-1.378229	 35.397820	-2.634230	-1.243508	 7.296012	 4.854692	-4.548269	-19.555320	-6.958895	 80.787280	 89.130250	-169.260100	-106.674200	 64.369190	 36.690510	 23.344710	-29.018480	 99.781270	-37.848370	-8.541853	 18.367570	-2.834143	 22.289060	-61.890110	 5.070519	-0.690904	-9.399550	-2.350882	 35.473990	 5.254307
 0.013570	 0.026498	 1.223410	 179.118100	 0.207956	-1.207328	-12.097270	-13.443700	-171.542800	-0.485823	-33.919680	-5.354148	 41.084630	 85.325680	-55.619060	-2.213409	 46.049430	-0.451592	 3.676158	-12.882760	 174.920500	 5.470199	-35.338520	 7.942101	-71.729220	 82.018620	 83.069620	 2.341442	 35.346950	 0.158912	 2.265744	 6.089248	 1.875654	 2.365740	 2.228345	 2.803636	-3.976416	-20.169090	-1.135837	-91.229190	 83.958310	 178.242500	 151.600000	 48.588280	-130.018100	-1.718736	-21.004220	-55.650810	 24.002490	-10.187100	-8.207005	-11.600160	 7.900838	-24.286190	-5.213937	-0.202400	 3.566957	-1.378229	 35.397820	-2.634230	-1.228501	 7.267279	 4.958667	-4.556267	-19.419310	-7.071654	 87.726900	 87.419040	-176.798800	-147.337300	 35.982110	 125.809400	 3.178264	-24.567180	 56.520370	-37.391680	-8.670732	 18.380250	-1.938348	 23.765300	-62.254630	 5.070519	-0.690904	-9.399550	-2.350882	 35.473990	 5.254307
 0.012817	 0.027777	 1.222325	 179.170200	 0.279319	-0.908294	-12.420300	-13.019950	-172.211000	-0.542797	-34.412880	-5.454898	 46.353820	 86.276790	-60.847440	-2.217675	 45.795540	-0.443575	 3.764413	-12.299520	 175.316700	 5.517601	-35.337910	 7.970449	-75.989810	 82.799090	 87.063560	 2.343189	 35.132160	 0.153713	 2.232819	 5.992671	 1.581339	 2.323128	 3.086726	 1.972601	-3.832811	-20.606270	-0.742880	-91.229400	 83.958310	 178.242700	 149.646900	 53.443900	-126.221800	-2.957912	-21.829310	-59.146190	 24.000220	-10.314880	-8.179064	-11.492560	 8.210892	-24.156530	-5.213937	-0.202400	 3.566957	-1.378229	 35.397820	-2.634230	-1.224904	 7.260405	 4.983593	-4.558146	-19.386700	-7.098706	 87.726780	 87.418820	-176.798700	-145.294300	 40.496150	 120.986300	 4.747078	-25.270400	 60.075020	-37.280620	-8.705132	 18.382750	-1.720658	 24.118260	-62.346410	 5.070519	-0.690904	-9.399550	-2.350882	 35.473990	 5.254307
 0.012373	 0.029240	 1.221113	 179.232800	 0.354967	-0.703209	-12.770260	-12.451500	-172.868300	-0.586124	-34.777550	-5.530342	 55.167680	 87.244160	-69.603930	-2.222561	 45.500350	-0.434329	 3.870788	-11.977760	 175.829200	 5.707180	-36.103120	 8.233845	-85.718110	 83.746710	 96.530590	 2.345170	 34.882470	 0.147691	 2.193494	 5.898810	 1.374949	 2.275318	 4.092605	 1.379025	-3.724956	-21.105460	-0.469687	-91.229270	 83.958310	 178.242600	 145.583000	 59.244990	-121.363900	-3.487910	-22.211250	-60.667840	 23.997100	-10.465030	-8.146606	-11.368140	 8.571838	-24.006170	-5.213937	-0.202400	 3.566957	-1.378229	 35.397820	-2.634230	-1.220705	 7.252418	 5.012605	-4.560382	-19.348780	-7.130176	 87.726720	 87.418960	-176.798700	-141.763900	 45.799210	 115.569200	 5.606495	-25.500620	 61.903560	-37.150820	-8.746943	 18.385420	-1.466199	 24.527940	-62.455170	 5.070519	-0.690904	-9.399550	-2.350882	 35.473990	 5.254307
 0.012190	 0.030369	 1.220176	 179.282900	 0.406689	-0.603623	-12.997150	-12.244650	-173.268100	-0.680149	-35.555290	-5.692967	 74.151620	 88.032480	-88.548830	-2.226352	 45.266730	-0.427068	 3.962863	-11.842630	 176.257600	 5.910052	-36.967610	 8.527517	-96.790710	 84.334490	 107.416200	 2.346722	 34.684860	 0.142952	 2.162227	 5.839801	 1.270666	 2.238683	 4.874846	 1.065762	-3.664698	-21.488730	-0.330168	-91.229160	 83.958340	 178.242500	 140.486000	 63.658290	-116.553900	-3.238450	-22.155150	-60.090510	 23.994360	-10.585050	-8.120917	-11.270150	 8.857871	-23.887410	-5.213937	-0.202400	 3.566957	-1.378229	 35.397820	-2.634230	-1.217383	 7.246067	 5.035541	-4.562053	-19.318760	-7.155069	 87.727050	 87.418960	-176.799000	-137.920700	 49.821760	 111.162700	 5.571238	-25.324910	 61.685820	-37.047470	-8.781335	 18.387300	-1.263707	 24.851690	-62.542920	 5.070519	-0.690904	-9.399550	-2.350882	 35.473990	 5.254307
 0.012161	 0.032586	 1.218339	 179.386600	 0.472734	-0.450923	-13.381530	-11.994890	-173.969800	-0.949031	-37.498220	-6.124614	 146.972600	 87.926610	-161.281400	-2.231296	 44.957000	-0.417524	 4.162070	-11.414300	 177.135800	 6.263938	-38.422990	 9.036459	-121.642600	 84.772650	 131.922200	 2.349275	 34.351420	 0.134993	 2.109698	 5.765731	 1.100015	 2.182363	 6.408172	 0.686262	-3.617430	-22.233610	-0.203609	-91.229290	 83.958370	 178.242600	 122.309300	 70.990400	-101.148600	-1.128571	-21.014360	-54.508560	 23.984540	-10.815780	-8.084702	-11.158500	 9.218306	-23.776970	-5.213937	-0.202400	 3.566957	-1.378229	 35.397820	-2.634230	-1.220967	 7.228978	 5.084469	-4.575166	-19.283060	-7.217709	 87.726940	 87.418820	-176.798900	-126.815200	 56.829820	 101.138600	 3.726807	-24.143250	 57.108510	-36.943980	-8.901591	 18.395300	-0.961510	 25.317860	-62.613710	 5.070519	-0.690904	-9.399550	-2.350882	 35.473990	 5.254307
 0.013371	 0.036787	 1.215391	 179.668200	 0.487870	-0.065557	-13.973080	-10.921450	-175.527400	-1.443880	-40.312090	-6.880120	-176.381100	 84.294460	 162.369400	-2.227137	 45.217970	-0.425559	 4.477550	-9.971456	 178.676300	 6.674174	-40.190140	 9.652286	-158.698500	 83.571330	 168.420800	 2.352150	 33.967010	 0.125871	 2.038701	 5.742185	 0.644529	 2.148530	 9.309708	 0.544309	-3.847460	-23.638080	-0.459667	-91.229260	 83.958340	 178.242600	 58.008890	 71.053250	-54.019180	 8.078575	-9.539995	-20.884170	 23.934800	-11.288570	-8.096248	-11.417730	 8.736037	-24.304370	-5.213937	-0.202400	 3.566957	-1.378229	 35.397820	-2.634230	-1.292296	 7.161953	 5.215163	-4.664750	-19.350770	-7.440936	 87.726740	 87.419040	-176.798700	-89.902590	 62.821620	 76.353490	-5.913029	-14.978120	 29.659780	-37.341020	-9.494933	 18.441620	-0.917059	 25.275500	-62.107810	 5.070519	-0.690904	-9.399550	-2.350882	 35.473990	 5.254307
